<svg width="140" height="45" viewBox="0 0 140 45" fill="none" xmlns="http://www.w3.org/2000/svg">
<rect width="140" height="45" rx="6.67473" fill="url(#paint0_linear_84_316)"/>
<path fill-rule="evenodd" clip-rule="evenodd" d="M23.0148 7.74159C24.4942 7.87715 26.4062 8.32706 27.7575 9.67933C29.1086 11.0314 29.5585 12.9431 29.6943 14.4222C29.7633 15.1742 29.754 15.8455 29.7276 16.3291C29.7144 16.5714 29.6968 16.7681 29.6823 16.906C29.675 16.975 29.6685 17.0293 29.6636 17.0674C29.6612 17.0865 29.6592 17.1015 29.6578 17.1123L29.6559 17.1251L29.6554 17.1292L29.6551 17.1311C29.6551 17.1311 29.655 17.1315 28.9903 17.0338C29.088 17.6985 29.0876 17.6986 29.0876 17.6986L29.0856 17.6989L29.0816 17.6994L29.0687 17.7013C29.058 17.7027 29.0429 17.7048 29.0239 17.7072C28.9858 17.712 28.9314 17.7186 28.8625 17.7258C28.7246 17.7403 28.5279 17.7579 28.2855 17.7711C27.802 17.7975 27.1306 17.8068 26.3786 17.7376C24.8994 17.6016 22.9877 17.1512 21.6357 15.7992C20.2844 14.4479 19.8345 12.5365 19.6987 11.0576C19.6297 10.3057 19.639 9.63441 19.6654 9.15094C19.6786 8.90861 19.6962 8.7119 19.7107 8.57404C19.718 8.50511 19.7245 8.45071 19.7294 8.41263C19.7318 8.39356 19.7338 8.37857 19.7353 8.36782L19.7371 8.35489L19.7376 8.35086L19.7379 8.34896C19.7379 8.34896 19.738 8.34851 20.4027 8.44623C20.3048 7.78154 20.3052 7.78145 20.3052 7.78145L20.3072 7.78121L20.3111 7.78059L20.3241 7.77882C20.3348 7.77734 20.3499 7.77532 20.3689 7.77289C20.4071 7.76803 20.4614 7.76148 20.5304 7.7542C20.6683 7.73958 20.8651 7.72195 21.1075 7.70865C21.5912 7.68213 22.2627 7.67266 23.0148 7.74159ZM21.0172 9.06051C21.0136 9.11186 21.0102 9.16646 21.0071 9.22411C20.9833 9.65985 20.9751 10.2635 21.0368 10.9348C21.1624 12.3022 21.5665 13.8297 22.5858 14.849C23.6061 15.8693 25.1341 16.2738 26.5017 16.3995C27.173 16.4613 27.7767 16.4532 28.2124 16.4294C28.27 16.4263 28.3246 16.4229 28.3758 16.4193C28.3794 16.3681 28.3828 16.3135 28.3859 16.2559C28.4097 15.8201 28.4179 15.2164 28.3562 14.5451C28.2306 13.1774 27.8265 11.6494 26.807 10.6292C25.7878 9.60916 24.26 9.20505 22.8922 9.0797C22.2208 9.01814 21.6169 9.02646 21.1811 9.05034C21.1233 9.05351 21.0686 9.05697 21.0172 9.06051Z" fill="url(#paint1_linear_84_316)"/>
<path d="M20.4027 8.44624L19.738 8.34852C19.7811 8.05517 20.0115 7.82474 20.3048 7.78155L20.4027 8.44624Z" fill="url(#paint2_linear_84_316)"/>
<path d="M28.9904 17.0338L29.655 17.1315C29.6119 17.4249 29.3815 17.6554 29.0881 17.6985L28.9904 17.0338Z" fill="url(#paint3_linear_84_316)"/>
<path fill-rule="evenodd" clip-rule="evenodd" d="M40.5602 8.44623C41.2249 8.34851 41.2249 8.34872 41.2249 8.34896L41.225 8.3495L41.2252 8.35086L41.2258 8.35489L41.2276 8.36782C41.2291 8.37857 41.2311 8.39356 41.2335 8.41263C41.2384 8.45076 41.2449 8.50511 41.2522 8.57408C41.2667 8.71194 41.2843 8.90861 41.2975 9.15098C41.3238 9.63449 41.3331 10.3058 41.2639 11.0577C41.1279 12.5367 40.6775 14.4481 39.3253 15.7993C37.9733 17.1512 36.0617 17.6016 34.5826 17.7376C33.8306 17.8068 33.1592 17.7975 32.6757 17.7711C32.4333 17.7579 32.2366 17.7403 32.0987 17.7258C32.0297 17.7186 31.9754 17.712 31.9373 17.7072C31.9182 17.7048 31.9032 17.7027 31.8925 17.7013L31.8795 17.6994L31.8755 17.6989L31.8741 17.6987L31.8736 17.6986C31.8734 17.6986 31.8731 17.6985 31.9709 17.0338C31.3061 17.1315 31.3061 17.1313 31.3061 17.1311L31.3058 17.1292L31.3052 17.1251L31.3034 17.1123C31.3019 17.1015 31.3 17.0865 31.2975 17.0674C31.2927 17.0293 31.2862 16.9749 31.2789 16.906C31.2643 16.7681 31.2468 16.5714 31.2335 16.3291C31.2072 15.8455 31.1979 15.1741 31.2671 14.4221C31.4031 12.9429 31.8535 11.0312 33.2055 9.67916C34.5576 8.3271 36.4694 7.87719 37.9487 7.74159C38.7007 7.67266 39.3721 7.68213 39.8556 7.70865C40.098 7.72195 40.2947 7.73958 40.4325 7.7542C40.5015 7.76148 40.5559 7.76803 40.594 7.77289C40.6131 7.77532 40.6281 7.77734 40.6388 7.77882L40.6517 7.78063L40.6558 7.78121L40.6572 7.78141L40.6577 7.78145C40.6579 7.7815 40.6581 7.78154 40.5602 8.44623ZM38.0713 9.0797C36.7038 9.20505 35.1758 9.60916 34.1557 10.6293C33.1354 11.6496 32.7309 13.1777 32.6052 14.5452C32.5434 15.2165 32.5516 15.8202 32.5753 16.2559C32.5784 16.3135 32.5818 16.3681 32.5854 16.4193C32.6366 16.4229 32.6912 16.4263 32.7488 16.4294C33.1845 16.4532 33.7882 16.4613 34.4595 16.3995C35.8271 16.2738 37.3551 15.8693 38.3754 14.849C39.3954 13.8297 39.8001 12.302 39.9259 10.9347C39.9876 10.2634 39.9795 9.65977 39.9558 9.22407C39.9526 9.16642 39.9492 9.11182 39.9456 9.06051C39.8943 9.05693 39.8397 9.05351 39.782 9.05034C39.3463 9.02646 38.7426 9.01814 38.0713 9.0797Z" fill="url(#paint4_linear_84_316)"/>
<path d="M31.9709 17.0338L31.8732 17.6985C31.5797 17.6554 31.3493 17.4249 31.3062 17.1315L31.9709 17.0338Z" fill="url(#paint5_linear_84_316)"/>
<path d="M41.2249 8.34852L40.5602 8.44624L40.6581 7.78155C40.9515 7.82478 41.1818 8.05517 41.2249 8.34852Z" fill="url(#paint6_linear_84_316)"/>
<path fill-rule="evenodd" clip-rule="evenodd" d="M43.3669 19.1592C43.3669 19.159 43.3669 19.1588 42.6952 19.1452L43.3669 19.1592C43.3729 18.8626 43.1837 18.5968 42.9014 18.5058L42.6952 19.1452C42.9014 18.5058 42.9012 18.5057 42.901 18.5057L42.8994 18.5051L42.8961 18.5041L42.8862 18.501L42.8769 18.4981L42.8692 18.4957L42.8526 18.4907C42.8244 18.4822 42.7844 18.4704 42.7339 18.4564C42.633 18.4284 42.4892 18.3909 42.3115 18.3511C41.9572 18.2716 41.4616 18.1815 40.8959 18.1395C39.7893 18.0571 38.2941 18.1494 37.0951 19.0028C35.8956 19.8566 35.3205 21.2406 35.0376 22.314C34.893 22.8627 34.8167 23.3609 34.7763 23.722C34.7561 23.9032 34.7447 24.0514 34.7383 24.156C34.7351 24.2084 34.7332 24.25 34.7321 24.2795C34.7315 24.2943 34.7311 24.306 34.7309 24.3146L34.7306 24.3251L34.7305 24.3285L34.7304 24.3302C34.7304 24.3304 34.7304 24.3306 35.4022 24.3439L34.7304 24.3306C34.7246 24.6271 34.9138 24.8923 35.1959 24.9833L35.4022 24.3439C35.1959 24.9833 35.1961 24.9833 35.1963 24.9834L35.1968 24.9835L35.198 24.984L35.2012 24.985L35.2112 24.9881C35.2194 24.9907 35.2306 24.9941 35.2448 24.9984C35.273 25.0069 35.313 25.0186 35.3636 25.0327C35.4647 25.0608 35.6086 25.0983 35.7865 25.1383C36.1412 25.2178 36.6373 25.308 37.2034 25.3502C38.3107 25.4328 39.807 25.3406 41.0047 24.4857C42.202 23.6311 42.7765 22.2475 43.0594 21.1745C43.2039 20.6259 43.2804 20.128 43.3208 19.767C43.3411 19.586 43.3525 19.4379 43.359 19.3332C43.3622 19.2809 43.3641 19.2394 43.3653 19.2098C43.3658 19.1951 43.3663 19.1834 43.3665 19.1748L43.3668 19.1643L43.3669 19.1597V19.1592ZM37.8743 20.0975C38.6917 19.5157 39.8017 19.4055 40.7962 19.4795C41.2623 19.5142 41.6767 19.5873 41.9812 19.6542C41.9451 19.964 41.8792 20.3799 41.76 20.8319C41.5057 21.7965 41.0398 22.8097 40.224 23.392C39.4087 23.974 38.2989 24.0844 37.3033 24.0102C36.8363 23.9754 36.421 23.9019 36.1159 23.8349C36.1519 23.5249 36.2177 23.1088 36.337 22.6565C36.5912 21.6918 37.0574 20.679 37.8743 20.0975Z" fill="url(#paint7_linear_84_316)"/>
<path fill-rule="evenodd" clip-rule="evenodd" d="M20.3048 18.1386C21.4106 18.0567 22.9047 18.1494 24.1021 19.0031C25.2997 19.8569 25.8741 21.2408 26.157 22.314C26.3016 22.8626 26.378 23.3608 26.4185 23.7218C26.4388 23.9029 26.4502 24.0511 26.4566 24.1557C26.4598 24.2081 26.4617 24.2497 26.4629 24.2792L26.4636 24.2968C26.4638 24.3036 26.464 24.3094 26.4642 24.3143L26.4644 24.3247L26.4645 24.3281L26.4645 24.3299C26.4645 24.3299 26.4646 24.3303 25.7928 24.3438C25.9991 24.9832 25.9987 24.9834 25.9987 24.9834L25.997 24.9839L25.9938 24.985L25.9838 24.9881C25.9756 24.9906 25.9644 24.9941 25.9502 24.9984C25.9219 25.0069 25.882 25.0186 25.8314 25.0327C25.7303 25.0608 25.5864 25.0983 25.4085 25.1382C25.0538 25.2177 24.5577 25.308 23.9916 25.3502C22.8843 25.4327 21.388 25.3406 20.1903 24.4857C18.9925 23.6307 18.4199 22.2461 18.1388 21.1725C17.9951 20.6237 17.9196 20.1254 17.8798 19.7643C17.8598 19.5832 17.8487 19.435 17.8424 19.3303C17.8394 19.2779 17.8375 19.2363 17.8364 19.2068C17.8358 19.1921 17.8354 19.1803 17.8352 19.1717L17.835 19.1613L17.8349 19.1579V19.1561C17.8349 19.1561 17.8348 19.1557 18.5066 19.1435C18.3005 18.504 18.301 18.5039 18.301 18.5039L18.3015 18.5037L18.3026 18.5033L18.3059 18.5023L18.3158 18.4992C18.324 18.4966 18.3352 18.4931 18.3493 18.4889C18.3776 18.4804 18.4175 18.4687 18.468 18.4547C18.5689 18.4267 18.7125 18.3893 18.8902 18.3496C19.2443 18.2703 19.7395 18.1804 20.3048 18.1386ZM19.2194 19.6529C19.255 19.963 19.3201 20.3794 19.4387 20.8322C19.6913 21.797 20.1557 22.8101 20.971 23.392C21.7863 23.974 22.8961 24.0844 23.8917 24.0102C24.3586 23.9754 24.7738 23.9019 25.079 23.835C25.0428 23.5249 24.9769 23.1088 24.8577 22.6564C24.6034 21.6915 24.1374 20.6786 23.322 20.0972C22.5063 19.5157 21.3977 19.4051 20.404 19.4787C19.9381 19.5132 19.5239 19.5862 19.2194 19.6529Z" fill="url(#paint8_linear_84_316)"/>
<path d="M18.5066 19.1435L17.8348 19.1557C17.8295 18.8596 18.0186 18.5948 18.3005 18.504L18.5066 19.1435Z" fill="url(#paint9_linear_84_316)"/>
<path d="M25.7928 24.3438L26.4645 24.3303C26.4705 24.6268 26.2813 24.8922 25.9991 24.9832L25.7928 24.3438Z" fill="url(#paint10_linear_84_316)"/>
<path d="M26.9269 30.3622C27.2564 30.0612 27.551 29.722 27.804 29.3508C28.2932 28.6332 28.6142 27.8145 28.7433 26.9556C28.8724 26.0967 28.8062 25.2198 28.5496 24.3901C28.4466 24.0569 28.3139 23.7347 28.1537 23.4273L28.4902 21.5255C29.0966 22.2498 29.5536 23.0884 29.8334 23.9931C30.1496 25.0158 30.2312 26.0967 30.0721 27.1553C29.913 28.2139 29.5172 29.2231 28.9143 30.1076C28.3116 30.9919 27.5172 31.729 26.5904 32.264L26.9269 30.3622Z" fill="url(#paint11_linear_84_316)"/>
<path fill-rule="evenodd" clip-rule="evenodd" d="M30.595 19.0308C29.281 19.0308 28.3924 19.5197 27.836 20.1141C27.5649 20.4037 27.3816 20.7087 27.2645 20.9748C27.1557 21.2219 27.0815 21.488 27.0815 21.7056C27.0815 21.8753 27.1457 22.0387 27.2613 22.1631C27.6152 22.5437 27.915 22.9692 28.1537 23.4273L26.9265 30.3626C26.619 30.6435 26.281 30.8912 25.9179 31.1007L25.917 31.1012C25.4188 31.3898 24.8801 31.6021 24.3189 31.731C24.137 31.7729 23.9807 31.8885 23.8874 32.0502C23.7942 32.2119 23.7724 32.4051 23.8273 32.5835C24.2754 34.0392 25.1784 35.3129 26.4036 36.2176C27.6288 37.1224 29.1117 37.6106 30.6348 37.6106C32.1579 37.6106 33.6408 37.1224 34.866 36.2176C36.0912 35.3129 36.9941 34.0392 37.4423 32.5835C37.4972 32.4052 37.4754 32.212 37.3822 32.0504C37.2891 31.8887 37.1329 31.773 36.951 31.7312C35.9634 31.5035 35.0529 31.0203 34.3109 30.3298C33.5689 29.6395 33.0213 28.7661 32.7232 27.7974C32.425 26.8287 32.3867 25.7987 32.6121 24.8105C32.8376 23.8224 33.3188 22.9108 34.0074 22.1672C34.1225 22.043 34.1864 21.8799 34.1864 21.7106C34.1864 21.454 34.0914 21.1659 33.9645 20.9116C33.8282 20.6387 33.6228 20.3394 33.337 20.0609C32.7548 19.4936 31.8575 19.0308 30.595 19.0308ZM26.9269 30.3622C26.9268 30.3623 26.9266 30.3625 26.9265 30.3626L26.59 32.2643C26.1959 32.4925 25.7812 32.682 25.3519 32.8306C25.7565 33.7431 26.3925 34.5391 27.2018 35.1367C28.1959 35.8708 29.3991 36.2669 30.6348 36.2669C31.8705 36.2669 33.0737 35.8708 34.0678 35.1367C34.8772 34.539 35.5132 33.7429 35.9178 32.8303C34.9833 32.5066 34.1237 31.991 33.3955 31.3136C32.4811 30.4628 31.8063 29.3865 31.4389 28.1927C31.0715 26.9989 31.0243 25.7294 31.3021 24.5117C31.552 23.416 32.0571 22.3968 32.774 21.536C32.7703 21.5282 32.7664 21.5202 32.7623 21.5119C32.6901 21.3672 32.5722 21.1919 32.3992 21.0232C32.0638 20.6964 31.5014 20.3746 30.595 20.3746C29.6485 20.3746 29.1163 20.7126 28.817 21.0324C28.6602 21.1999 28.557 21.3738 28.4944 21.5159L28.4902 21.5255L28.1537 23.4273C28.1537 23.4273 28.1537 23.4273 28.1537 23.4273L26.9269 30.3622Z" fill="url(#paint12_linear_84_316)"/>
<path d="M52.9341 23.595L51.6815 23.7577V24.7337H57.814V23.7577L55.3253 23.595V19.3493L57.749 19.4144L58.0743 20.8784H59.0992V16.7466H58.0582L57.749 18.1781L55.3253 18.2269V13.6233L58.8389 13.8023L59.441 15.5917H60.7422L60.5795 12.6473H51.6003V13.6559L52.9341 13.8673V23.595Z" fill="white"/>
<path d="M64.127 14.209H64.143C65.1029 14.209 65.6234 13.6233 65.6234 12.7775C65.6234 12.1268 65.2169 11.5575 64.2896 11.5575C63.3948 11.5575 62.8579 12.1756 62.8579 12.9889C62.8579 13.6721 63.3137 14.209 64.127 14.209ZM63.2647 23.6113L62.1261 23.7577V24.7337H66.6643V23.7577L65.5748 23.6275V15.8031L65.1194 15.4778H65.0868L62.1097 15.8357V16.9255L63.2647 17.2346V23.6113Z" fill="white"/>
<path d="M69.0666 23.6112L68.1233 23.7577V24.7337H72.3691V23.7577L71.3932 23.6112V17.6901C71.8486 17.3485 72.6128 16.893 73.3775 16.893C74.5 16.893 74.7603 17.5274 74.7603 19.1378V23.6275L73.8819 23.7577V24.7337H78.0788V23.7577L77.0864 23.6275V19.1378C77.0864 16.5351 76.4518 15.5103 74.4835 15.5103C73.1498 15.5103 71.8486 16.1935 71.1655 16.8279L71.1815 16.4375V15.8031L70.7747 15.4778H70.7261L68.0257 15.8194V16.9418L69.0666 17.2346V23.6112Z" fill="white"/>
<path d="M80.4971 23.6113L79.3581 23.7577V24.7337H83.9618V23.7577L82.7742 23.6275V11.7039L82.3353 11.3948H82.3027L79.2931 11.7526V12.6311L80.4971 12.8425V23.6113Z" fill="white"/>
<path d="M87.3429 14.209H87.359C88.3188 14.209 88.8393 13.6233 88.8393 12.7775C88.8393 12.1268 88.4329 11.5575 87.5056 11.5575C86.6108 11.5575 86.0742 12.1756 86.0742 12.9889C86.0742 13.6721 86.5296 14.209 87.3429 14.209ZM86.4807 23.6113L85.3421 23.7577V24.7337H89.8807V23.7577L88.7907 23.6275V15.8031L88.3353 15.4778H88.3028L85.3256 15.8357V16.9255L86.4807 17.2346V23.6113Z" fill="white"/>
<path d="M94.1046 24.8801C95.2757 24.8801 96.5934 24.4084 97.1464 23.9854L96.8376 23.0745C96.4958 23.2208 95.8452 23.3835 95.2597 23.3835C94.5115 23.3835 94.43 23.2534 94.43 21.5128V16.9418H96.9027V15.6893H94.4139L94.3488 13.298H93.0472C92.9171 13.7535 92.6894 14.5831 92.5107 14.9898C92.3805 15.3477 92.2339 15.5754 92.0388 15.7218C91.795 15.8356 91.3556 15.9821 91.0464 16.0959V16.9418H92.1038V22.9118C92.1038 24.3107 92.7709 24.8801 94.1046 24.8801Z" fill="white"/>
<path d="M99.8666 24.8801C100.728 24.8801 101.363 24.3758 101.363 23.5137C101.363 22.8792 100.908 22.2774 100.094 22.2774C99.2811 22.2774 98.614 22.8304 98.614 23.6438C98.614 24.3758 99.216 24.8801 99.8666 24.8801Z" fill="white"/>
<path d="M110.765 24.8964C111.594 24.8964 112.261 24.7337 112.652 24.6523L112.668 23.7252H111.757V15.7218L111.367 15.494H111.334L108.39 15.7055V16.6165L109.48 16.8605V22.8304C109.155 23.1233 108.536 23.5787 107.69 23.5787C106.617 23.5787 106.308 23.0094 106.308 21.4478V15.7218L105.982 15.494H105.966L103.201 15.7055V16.6327L104.014 16.8605V21.4478C104.014 23.9203 104.811 24.9126 106.91 24.9126C108.048 24.9126 109.203 24.1969 109.74 23.5462V23.9854C109.74 24.5873 110.049 24.8964 110.765 24.8964Z" fill="white"/>
<path d="M119.397 16.7466L118.226 17.9666L113.785 23.839L114.192 24.7337H121.74L122 21.7894L120.894 21.6592L120.113 23.5299L116.469 23.7089L117.608 22.5376L121.935 16.5351L121.561 15.6893H114.387V18.4546H115.558L115.932 16.8605L119.397 16.7466Z" fill="white"/>
<path d="M55.2532 32.1892H55.079V29.8433C55.0766 29.4927 54.9992 29.2324 54.8464 29.0625C54.6961 28.8903 54.4552 28.8043 54.1237 28.8043C53.7408 28.8043 53.4278 28.9732 53.1849 29.3109C53.0407 29.5131 52.9448 29.7368 52.8974 29.9821V32.1892H52.72V28.6978H52.8974V29.5239C53.016 29.2399 53.1849 29.0205 53.4043 28.8656C53.6234 28.7107 53.8668 28.6333 54.1336 28.6333C54.426 28.6333 54.6648 28.6978 54.8497 28.8269C55.037 28.956 55.1597 29.1668 55.2178 29.4593C55.3207 29.2077 55.4888 29.0076 55.721 28.8592C55.9532 28.7086 56.2135 28.6333 56.5017 28.6333C56.8785 28.6333 57.1581 28.7398 57.3409 28.9527C57.5258 29.1657 57.6193 29.4852 57.6217 29.9111V32.1892H57.4472V29.924C57.4472 29.5411 57.3697 29.2582 57.2149 29.0754C57.0621 28.8903 56.8213 28.8 56.4922 28.8043C56.0685 28.8107 55.7329 28.9796 55.4855 29.3109C55.3434 29.5024 55.266 29.6874 55.2532 29.8659V32.1892Z" fill="white"/>
<path d="M58.8118 30.3757C58.8118 30.0423 58.8752 29.7433 59.0024 29.4787C59.1313 29.2119 59.3121 29.0044 59.5443 28.8559C59.7786 28.7075 60.0434 28.6333 60.3382 28.6333C60.6306 28.6333 60.8933 28.7054 61.1255 28.8495C61.3578 28.9936 61.5385 29.198 61.6674 29.4626C61.7988 29.7272 61.8655 30.0251 61.8676 30.3564V30.5113C61.8676 30.8469 61.8041 31.147 61.6773 31.4116C61.5505 31.6761 61.3697 31.8827 61.135 32.0311C60.9028 32.1795 60.6392 32.2537 60.3444 32.2537C60.05 32.2537 59.7852 32.1806 59.5509 32.0343C59.3187 31.888 59.1379 31.6837 59.0086 31.4212C58.8797 31.1566 58.8138 30.8598 58.8118 30.5307V30.3757ZM58.986 30.5113C58.986 30.8017 59.0432 31.0684 59.1572 31.3115C59.2734 31.5525 59.4335 31.7407 59.6378 31.8762C59.8445 32.0117 60.08 32.0795 60.3444 32.0795C60.7426 32.0795 61.0662 31.93 61.3158 31.631C61.5674 31.332 61.6934 30.9469 61.6934 30.4758V30.3757C61.6934 30.0896 61.6353 29.825 61.5192 29.582C61.4031 29.3389 61.2417 29.1496 61.0349 29.014C60.8307 28.8764 60.5985 28.8075 60.3382 28.8075C59.94 28.8075 59.6151 28.9592 59.3635 29.2625C59.112 29.5658 58.986 29.9477 58.986 30.408V30.5113Z" fill="white"/>
<path d="M63.3289 32.1892H63.1548V27.2328H63.3289V32.1892Z" fill="white"/>
<path d="M65.0872 32.1892H64.913V28.6978H65.0872V32.1892ZM64.8224 27.6072C64.8224 27.5577 64.8397 27.5158 64.8743 27.4813C64.9085 27.4448 64.9505 27.4265 64.9999 27.4265C65.0493 27.4265 65.0913 27.4448 65.1259 27.4813C65.1626 27.5158 65.1807 27.5577 65.1807 27.6072C65.1807 27.6567 65.1626 27.6986 65.1259 27.733C65.0913 27.7674 65.0493 27.7846 64.9999 27.7846C64.9505 27.7846 64.9085 27.7674 64.8743 27.733C64.8397 27.6986 64.8224 27.6567 64.8224 27.6072Z" fill="white"/>
<path d="M67.6971 31.9182L67.7197 31.8536L68.9266 28.6978H69.1201L67.5587 32.7958L67.4809 32.9894C67.3133 33.396 67.0357 33.5993 66.6487 33.5993C66.5239 33.5993 66.4378 33.5875 66.3905 33.5638L66.3872 33.3992C66.456 33.4186 66.5346 33.4283 66.6227 33.4283C66.8056 33.4283 66.9571 33.3745 67.0777 33.2669C67.198 33.1615 67.3026 32.9884 67.3907 32.7474L67.6036 32.1698L66.213 28.6978H66.4033L67.6971 31.9182Z" fill="white"/>
<path d="M72.3855 32.1892C72.3423 32.0408 72.3209 31.8278 72.3209 31.5503C72.1834 31.774 71.9948 31.9472 71.7563 32.0698C71.5175 32.1924 71.2474 32.2537 70.9464 32.2537C70.6235 32.2537 70.3633 32.1666 70.1652 31.9924C69.9696 31.816 69.8716 31.5869 69.8716 31.3051C69.8716 30.9846 70.0158 30.7285 70.304 30.5371C70.5947 30.3435 70.9797 30.2446 71.4594 30.2402H72.3209V29.7304C72.3209 29.4378 72.2282 29.2109 72.0433 29.0495C71.8605 28.8882 71.5982 28.8075 71.256 28.8075C70.9377 28.8075 70.6721 28.8893 70.4588 29.0528C70.2459 29.2163 70.1397 29.4185 70.1397 29.6594L69.9651 29.653C69.9651 29.369 70.0899 29.1281 70.3394 28.9302C70.589 28.7323 70.8945 28.6333 71.256 28.6333C71.6324 28.6333 71.9313 28.7279 72.1529 28.9172C72.3748 29.1044 72.4885 29.369 72.4951 29.7111V31.3793C72.4951 31.7622 72.5251 32.0225 72.5852 32.1602V32.1892H72.3855ZM70.9464 32.0827C71.2733 32.0827 71.5537 32.0096 71.7885 31.8633C72.0252 31.717 72.2027 31.5116 72.3209 31.247V30.4177H71.5142C71.0151 30.4177 70.6334 30.5166 70.3687 30.7145C70.1537 30.8759 70.0458 31.077 70.0458 31.318C70.0458 31.5309 70.1311 31.7116 70.3007 31.8601C70.4708 32.0085 70.6861 32.0827 70.9464 32.0827Z" fill="white"/>
<path d="M74.9921 31.9117L76.2476 28.6978H76.4345L75.0761 32.1892H74.9052L73.55 28.6978H73.737L74.9921 31.9117Z" fill="white"/>
<path d="M77.7345 32.1892H77.5603V28.6978H77.7345V32.1892ZM77.4702 27.6072C77.4702 27.5577 77.4874 27.5158 77.5216 27.4813C77.5562 27.4448 77.5982 27.4265 77.6476 27.4265C77.697 27.4265 77.739 27.4448 77.7732 27.4813C77.8099 27.5158 77.8284 27.5577 77.8284 27.6072C77.8284 27.6567 77.8099 27.6986 77.7732 27.733C77.739 27.7674 77.697 27.7846 77.6476 27.7846C77.5982 27.7846 77.5562 27.7674 77.5216 27.733C77.4874 27.6986 77.4702 27.6567 77.4702 27.6072Z" fill="white"/>
<path d="M80.3447 31.9182L80.3674 31.8536L81.5743 28.6978H81.7678L80.206 32.7958L80.1286 32.9894C79.9606 33.396 79.683 33.5993 79.2959 33.5993C79.1712 33.5993 79.0851 33.5875 79.0378 33.5638L79.0345 33.3992C79.1037 33.4186 79.1819 33.4283 79.27 33.4283C79.4528 33.4283 79.6048 33.3745 79.725 33.2669C79.8457 33.1615 79.9498 32.9884 80.038 32.7474L80.2513 32.1698L78.8603 28.6978H79.0509L80.3447 31.9182Z" fill="white"/>
<path d="M86.9587 31.3341C86.9587 30.9103 86.5976 30.6221 85.8745 30.4693C85.4401 30.3768 85.1378 30.2585 84.9678 30.1144C84.7981 29.9681 84.7129 29.768 84.7129 29.5142C84.7129 29.2582 84.8207 29.0474 85.0357 28.8817C85.2531 28.7161 85.5348 28.6333 85.8811 28.6333C86.2574 28.6333 86.5597 28.7237 86.7878 28.9043C87.0159 29.0829 87.13 29.3249 87.13 29.6304H86.9525C86.9525 29.3959 86.8533 29.2001 86.6556 29.0431C86.4576 28.8861 86.1994 28.8075 85.8811 28.8075C85.5755 28.8075 85.3334 28.8742 85.1551 29.0076C84.9764 29.141 84.887 29.3077 84.887 29.5078C84.887 29.6648 84.9204 29.7885 84.9871 29.8788C85.0538 29.967 85.1625 30.0477 85.3132 30.1209C85.4639 30.1918 85.683 30.2606 85.9713 30.3274C86.2595 30.394 86.4876 30.4726 86.6556 30.5629C86.8232 30.6532 86.9447 30.7608 87.02 30.8856C87.0954 31.0082 87.1333 31.1588 87.1333 31.3373C87.1333 31.6127 87.02 31.8342 86.7944 32.002C86.5683 32.1698 86.2727 32.2537 85.907 32.2537C85.5154 32.2537 85.1992 32.1655 84.9583 31.9892C84.7195 31.8106 84.6 31.5815 84.6 31.3018H84.7742C84.7915 31.5471 84.899 31.7385 85.0971 31.8762C85.2972 32.0117 85.5669 32.0795 85.907 32.0795C86.2187 32.0795 86.4716 32.0074 86.6651 31.8633C86.8611 31.717 86.9587 31.5406 86.9587 31.3341Z" fill="white"/>
<path d="M90.7499 32.1892C90.7071 32.0408 90.6853 31.8278 90.6853 31.5503C90.5477 31.774 90.3596 31.9472 90.1207 32.0698C89.8819 32.1924 89.6118 32.2537 89.3108 32.2537C88.9879 32.2537 88.7277 32.1666 88.53 31.9924C88.334 31.816 88.2365 31.5869 88.2365 31.3051C88.2365 30.9846 88.3806 30.7285 88.6688 30.5371C88.9591 30.3435 89.3441 30.2446 89.8238 30.2402H90.6853V29.7304C90.6853 29.4378 90.593 29.2109 90.4077 29.0495C90.2249 28.8882 89.9626 28.8075 89.6204 28.8075C89.3021 28.8075 89.0365 28.8893 88.8236 29.0528C88.6108 29.2163 88.5041 29.4185 88.5041 29.6594L88.3299 29.653C88.3299 29.369 88.4547 29.1281 88.7042 28.9302C88.9538 28.7323 89.2593 28.6333 89.6204 28.6333C89.9972 28.6333 90.2961 28.7279 90.5177 28.9172C90.7392 29.1044 90.8533 29.369 90.8595 29.7111V31.3793C90.8595 31.7622 90.8899 32.0225 90.9501 32.1602V32.1892H90.7499ZM89.3108 32.0827C89.6377 32.0827 89.9186 32.0096 90.1529 31.8633C90.3896 31.717 90.5671 31.5116 90.6853 31.247V30.4177H89.8786C89.3795 30.4177 88.9978 30.5166 88.733 30.7145C88.5181 30.8759 88.4106 31.077 88.4106 31.318C88.4106 31.5309 88.4955 31.7116 88.6655 31.8601C88.8356 32.0085 89.0505 32.0827 89.3108 32.0827Z" fill="white"/>
<path d="M93.3569 31.9117L94.612 28.6978H94.7994L93.4409 32.1892H93.2696L91.9145 28.6978H92.1014L93.3569 31.9117Z" fill="white"/>
<path d="M95.5669 30.3757C95.5669 30.0423 95.6303 29.7433 95.7571 29.4787C95.886 29.2119 96.0668 29.0044 96.2994 28.8559C96.5337 28.7075 96.7985 28.6333 97.0929 28.6333C97.3857 28.6333 97.648 28.7054 97.8803 28.8495C98.1125 28.9936 98.2933 29.198 98.4226 29.4626C98.5535 29.7272 98.6202 30.0251 98.6227 30.3564V30.5113C98.6227 30.8469 98.5593 31.147 98.432 31.4116C98.3052 31.6761 98.1244 31.8827 97.8901 32.0311C97.6579 32.1795 97.3944 32.2537 97.0995 32.2537C96.8047 32.2537 96.5403 32.1806 96.3056 32.0343C96.0734 31.888 95.8926 31.6837 95.7637 31.4212C95.6344 31.1566 95.569 30.8598 95.5669 30.5307V30.3757ZM95.7411 30.5113C95.7411 30.8017 95.7979 31.0684 95.912 31.3115C96.0281 31.5525 96.1883 31.7407 96.3929 31.8762C96.5992 32.0117 96.8348 32.0795 97.0995 32.0795C97.4973 32.0795 97.8214 31.93 98.0709 31.631C98.3225 31.332 98.4481 30.9469 98.4481 30.4758V30.3757C98.4481 30.0896 98.39 29.825 98.2739 29.582C98.1578 29.3389 97.9964 29.1496 97.7901 29.014C97.5858 28.8764 97.3532 28.8075 97.0929 28.8075C96.6952 28.8075 96.3703 28.9592 96.1187 29.2625C95.8667 29.5658 95.7411 29.9477 95.7411 30.408V30.5113Z" fill="white"/>
<path d="M99.7064 30.408C99.7064 29.8508 99.8234 29.4163 100.058 29.1044C100.292 28.7903 100.614 28.6333 101.023 28.6333C101.285 28.6333 101.517 28.6924 101.717 28.8107C101.919 28.9291 102.082 29.1055 102.207 29.3399V27.2328H102.381V32.1892H102.207V31.6309C102.089 31.8289 101.926 31.9827 101.72 32.0924C101.513 32.1999 101.279 32.2537 101.016 32.2537C100.612 32.2537 100.292 32.0935 100.058 31.7729C99.8234 31.4524 99.7064 31.0125 99.7064 30.4532V30.408ZM99.8872 30.4758C99.8872 30.9705 99.9848 31.3621 100.181 31.6503C100.376 31.9364 100.654 32.0795 101.013 32.0795C101.301 32.0795 101.548 32.016 101.752 31.8891C101.956 31.76 102.108 31.5718 102.207 31.3244V29.6884C102.007 29.1012 101.611 28.8075 101.02 28.8075C100.663 28.8075 100.384 28.9484 100.184 29.2302C99.986 29.512 99.8872 29.9272 99.8872 30.4758Z" fill="white"/>
<path d="M104.908 30.2467L106.021 28.6978H106.24L105.014 30.3983L106.305 32.1892H106.089L104.904 30.55L103.723 32.1892H103.507L104.798 30.3983L103.572 28.6978H103.791L104.908 30.2467Z" fill="white"/>
<path d="M107.108 30.3757C107.108 30.0423 107.171 29.7433 107.298 29.4787C107.427 29.2119 107.608 29.0044 107.84 28.8559C108.075 28.7075 108.339 28.6333 108.634 28.6333C108.927 28.6333 109.189 28.7054 109.421 28.8495C109.654 28.9936 109.835 29.198 109.963 29.4626C110.095 29.7272 110.161 30.0251 110.164 30.3564V30.5113C110.164 30.8469 110.1 31.147 109.973 31.4116C109.846 31.6761 109.666 31.8827 109.431 32.0311C109.199 32.1795 108.935 32.2537 108.64 32.2537C108.346 32.2537 108.081 32.1806 107.847 32.0343C107.614 31.888 107.434 31.6837 107.305 31.4212C107.176 31.1566 107.11 30.8598 107.108 30.5307V30.3757ZM107.282 30.5113C107.282 30.8017 107.339 31.0684 107.453 31.3115C107.569 31.5525 107.73 31.7407 107.934 31.8762C108.14 32.0117 108.376 32.0795 108.64 32.0795C109.039 32.0795 109.362 31.93 109.612 31.631C109.863 31.332 109.989 30.9469 109.989 30.4758V30.3757C109.989 30.0896 109.931 29.825 109.815 29.582C109.699 29.3389 109.538 29.1496 109.331 29.014C109.127 28.8764 108.894 28.8075 108.634 28.8075C108.236 28.8075 107.911 28.9592 107.66 29.2625C107.408 29.5658 107.282 29.9477 107.282 30.408V30.5113Z" fill="white"/>
<path d="M111.583 29.511C111.697 29.2399 111.865 29.0259 112.086 28.8688C112.308 28.7118 112.553 28.6333 112.822 28.6333C113.196 28.6333 113.474 28.7398 113.655 28.9527C113.837 29.1636 113.93 29.483 113.932 29.9111V32.1892H113.758V29.9046C113.756 29.5303 113.679 29.2539 113.529 29.0754C113.378 28.8947 113.139 28.8043 112.812 28.8043C112.511 28.8043 112.25 28.9119 112.028 29.127C111.809 29.34 111.66 29.6153 111.583 29.9531V32.1892H111.409V28.6978H111.583V29.511Z" fill="white"/>
<path d="M115.642 32.1892H115.468V27.2328H115.642V32.1892Z" fill="white"/>
<path d="M117.4 32.1892H117.226V28.6978H117.4V32.1892ZM117.135 27.6072C117.135 27.5577 117.153 27.5158 117.187 27.4813C117.221 27.4448 117.263 27.4265 117.313 27.4265C117.363 27.4265 117.405 27.4448 117.439 27.4813C117.475 27.5158 117.494 27.5577 117.494 27.6072C117.494 27.6567 117.475 27.6986 117.439 27.733C117.405 27.7674 117.363 27.7846 117.313 27.7846C117.263 27.7846 117.221 27.7674 117.187 27.733C117.153 27.6986 117.135 27.6567 117.135 27.6072Z" fill="white"/>
<path d="M119.629 30.3015L119.623 30.308L119.116 30.7436V32.1892H118.942V27.2328H119.116V30.5532L119.526 30.166L121.114 28.6978H121.362L119.758 30.1854L121.462 32.1892H121.236L119.629 30.3015Z" fill="white"/>
<defs>
<linearGradient id="paint0_linear_84_316" x1="70" y1="48.15" x2="70" y2="1.65758e-07" gradientUnits="userSpaceOnUse">
<stop stop-color="#0D3A49"/>
<stop offset="1" stop-color="#1D4451"/>
</linearGradient>
<linearGradient id="paint1_linear_84_316" x1="30.6009" y1="11.6258" x2="30.6009" y2="34.4609" gradientUnits="userSpaceOnUse">
<stop stop-color="#F2EABF"/>
<stop offset="1" stop-color="#F3DF7B"/>
</linearGradient>
<linearGradient id="paint2_linear_84_316" x1="30.6009" y1="11.6258" x2="30.6009" y2="34.461" gradientUnits="userSpaceOnUse">
<stop stop-color="#F2EABF"/>
<stop offset="1" stop-color="#F3DF7B"/>
</linearGradient>
<linearGradient id="paint3_linear_84_316" x1="30.6009" y1="11.6258" x2="30.6009" y2="34.4609" gradientUnits="userSpaceOnUse">
<stop stop-color="#F2EABF"/>
<stop offset="1" stop-color="#F3DF7B"/>
</linearGradient>
<linearGradient id="paint4_linear_84_316" x1="30.6009" y1="11.6258" x2="30.6009" y2="34.4609" gradientUnits="userSpaceOnUse">
<stop stop-color="#F2EABF"/>
<stop offset="1" stop-color="#F3DF7B"/>
</linearGradient>
<linearGradient id="paint5_linear_84_316" x1="30.6009" y1="11.6258" x2="30.6009" y2="34.4609" gradientUnits="userSpaceOnUse">
<stop stop-color="#F2EABF"/>
<stop offset="1" stop-color="#F3DF7B"/>
</linearGradient>
<linearGradient id="paint6_linear_84_316" x1="30.6009" y1="11.6258" x2="30.6009" y2="34.461" gradientUnits="userSpaceOnUse">
<stop stop-color="#F2EABF"/>
<stop offset="1" stop-color="#F3DF7B"/>
</linearGradient>
<linearGradient id="paint7_linear_84_316" x1="30.6009" y1="11.6258" x2="30.6009" y2="34.4609" gradientUnits="userSpaceOnUse">
<stop stop-color="#F2EABF"/>
<stop offset="1" stop-color="#F3DF7B"/>
</linearGradient>
<linearGradient id="paint8_linear_84_316" x1="30.6009" y1="11.6258" x2="30.6009" y2="34.4609" gradientUnits="userSpaceOnUse">
<stop stop-color="#F2EABF"/>
<stop offset="1" stop-color="#F3DF7B"/>
</linearGradient>
<linearGradient id="paint9_linear_84_316" x1="30.6009" y1="11.6258" x2="30.6009" y2="34.4609" gradientUnits="userSpaceOnUse">
<stop stop-color="#F2EABF"/>
<stop offset="1" stop-color="#F3DF7B"/>
</linearGradient>
<linearGradient id="paint10_linear_84_316" x1="30.6009" y1="11.6258" x2="30.6009" y2="34.4609" gradientUnits="userSpaceOnUse">
<stop stop-color="#F2EABF"/>
<stop offset="1" stop-color="#F3DF7B"/>
</linearGradient>
<linearGradient id="paint11_linear_84_316" x1="30.6009" y1="11.6258" x2="30.6009" y2="34.4609" gradientUnits="userSpaceOnUse">
<stop stop-color="#F2EABF"/>
<stop offset="1" stop-color="#F3DF7B"/>
</linearGradient>
<linearGradient id="paint12_linear_84_316" x1="30.6009" y1="11.6258" x2="30.6009" y2="34.4609" gradientUnits="userSpaceOnUse">
<stop stop-color="#F2EABF"/>
<stop offset="1" stop-color="#F3DF7B"/>
</linearGradient>
</defs>
</svg>
